<?xml version="1.0" standalone="no"?>
<!DOCTYPE svg PUBLIC "-//W3C//DTD SVG 20010904//EN"
 "http://www.w3.org/TR/2001/REC-SVG-20010904/DTD/svg10.dtd">
<svg version="1.0" xmlns="http://www.w3.org/2000/svg"
 width="474.000000pt" height="474.000000pt" viewBox="0 0 474.000000 474.000000"
 preserveAspectRatio="xMidYMid meet">
<metadata>
Created by potrace 1.11, written by Peter Selinger 2001-2013
</metadata>
<g transform="translate(0.000000,474.000000) scale(0.100000,-0.100000)"
fill="#000000" stroke="none">
<path d="M2004 4694 c-124 -21 -392 -90 -408 -105 -6 -5 -16 -9 -24 -9 -28 0
-299 -120 -367 -162 -106 -67 -243 -157 -255 -169 -8 -8 -38 -32 -65 -54 -116
-92 -252 -228 -330 -331 -11 -14 -30 -37 -42 -51 -13 -14 -23 -29 -23 -33 0
-4 -10 -18 -22 -31 -22 -24 -99 -140 -148 -222 -57 -96 -160 -328 -160 -359 0
-8 -4 -18 -9 -23 -11 -13 -52 -164 -88 -325 -28 -123 -28 -129 -27 -440 l2
-315 36 -179 c50 -237 142 -496 230 -641 20 -33 36 -64 36 -69 0 -10 146 -221
189 -272 133 -163 270 -300 371 -374 19 -14 48 -37 64 -51 75 -64 267 -180
411 -249 163 -78 488 -179 626 -195 30 -4 70 -13 90 -21 29 -13 80 -15 290
-11 258 4 303 9 509 54 801 177 1454 762 1721 1543 29 84 78 280 98 394 6 32
16 64 21 71 7 9 10 101 7 266 -2 215 -6 272 -25 369 -13 63 -25 129 -28 145
-26 151 -108 387 -196 565 -40 80 -76 150 -81 155 -4 6 -29 44 -55 85 -77 122
-140 204 -252 325 -36 38 -68 69 -73 67 -4 -1 -6 1 -5 5 2 5 1 8 -2 9 -3 0
-25 20 -50 45 -25 24 -65 60 -90 79 -24 19 -58 48 -75 63 -16 16 -50 40 -75
54 -25 15 -54 34 -65 43 -39 32 -153 99 -159 93 -3 -4 -6 -1 -6 5 0 7 -3 11
-7 10 -5 -1 -55 21 -113 49 -184 89 -497 182 -689 204 -111 13 -597 7 -687 -7z
m645 -1135 l-1 -130 261 1 261 1 0 -136 0 -135 260 0 260 0 0 -923 0 -924
-797 -5 c-439 -3 -1093 -4 -1453 -3 l-655 3 0 1059 0 1058 273 3 272 2 0 -135
0 -135 255 0 255 0 0 265 0 265 405 0 406 0 -2 -131z"/>
</g>
</svg>
